Coordinates
version=1
nRows=13
nColumns=30
inDegrees=yes

Units are S.I. units (second, meters, Newtons, ...)
Angles are in degrees.

endheader
time	floatyaw	floatroll	floatpitch	floatx	floaty	floatz	pro_sup_l	deviation_l	flexion_l	cmc_flexion_l	cmc_abduction_l	mp_flexion_l	ip_flexion_l	2mcp_flexion_l	2mcp_abduction_l	2pm_flexion_l	2md_flexion_l	3mcp_flexion_l	3mcp_abduction_l	3pm_flexion_l	3md_flexion_l	4mcp_flexion_l	4mcp_abduction_l	4pm_flexion_l	4md_flexion_l	5mcp_flexion_l	5mcp_abduction_l	5pm_flexion_l	5md_flexion_l
0.005000	-2.783033	-3.505068	94.703499	0.171389	-0.283542	0.185982	119.608220	17.994387	28.536967	9.666272	33.782992	-17.572850	-32.781908	45.266421	10.161817	44.063785	45.965200	55.110027	6.671952	50.448250	56.460148	54.251735	-6.401936	70.744602	54.833968	28.597360	-13.654171	72.392978	55.316311
0.015000	-2.783033	-3.505068	94.703499	0.170866	-0.282518	0.185737	119.687404	17.846101	27.818305	11.290204	34.674997	-17.965519	-36.648263	45.508797	10.343370	44.514383	47.457134	55.107897	6.648909	51.676752	57.971342	54.095060	-6.470478	72.103838	56.154873	28.329740	-13.616484	73.428944	56.146489
0.025000	-2.783033	-3.505068	94.703499	0.170264	-0.281473	0.185465	119.766289	17.698964	27.065192	12.752993	35.481797	-18.211458	-40.300832	45.731300	10.543948	44.906058	48.905992	55.106320	6.639752	52.843027	59.376373	53.966636	-6.536032	73.424202	57.411159	28.084969	-13.577825	74.465816	56.945679
0.035000	-2.783033	-3.505068	94.703499	0.169614	-0.280484	0.185126	119.793313	17.524168	26.355401	13.959042	36.129676	-18.309867	-43.502289	45.919449	10.737994	45.210172	50.255457	55.110523	6.642265	53.880474	60.647030	53.870976	-6.593165	74.647675	58.566736	27.863114	-13.542826	75.457376	57.683696
0.045000	-2.783033	-3.505068	94.703499	0.168946	-0.279620	0.184696	119.732213	17.298669	25.760985	14.862783	36.592581	-18.277441	-46.096422	46.055226	10.904753	45.412502	51.471926	55.119956	6.654362	54.737333	61.776062	53.801596	-6.638872	75.723648	59.601471	27.654661	-13.516693	76.353641	58.345439
0.055000	-2.783033	-3.505068	94.703499	0.168285	-0.278938	0.184176	119.571271	17.011411	25.330291	15.471604	36.889251	-18.146683	-48.031211	46.123773	11.032535	45.514940	52.541435	55.130425	6.674756	55.386267	62.776545	53.745527	-6.673005	76.618179	60.511567	27.446640	-13.503913	77.109590	58.929011
0.065000	-2.783033	-3.505068	94.703499	0.167650	-0.278462	0.183599	119.324844	16.666363	25.076268	15.834603	37.066670	-17.960476	-49.350860	46.119631	11.119440	45.534480	53.458867	55.136104	6.702539	55.829714	63.673415	53.688024	-6.697636	77.320793	61.305124	27.228047	-13.506671	77.696707	59.440414
0.075000	-2.783033	-3.505068	94.703499	0.167054	-0.278185	0.183018	119.027598	16.281942	24.975378	16.021689	37.178375	-17.762671	-50.164069	46.050553	11.171099	45.498463	54.217430	55.131923	6.736181	56.097688	64.491509	53.617049	-6.715849	77.845880	61.995676	26.993962	-13.523615	78.112569	59.887310
0.085000	-2.783033	-3.505068	94.703499	0.166509	-0.278066	0.182496	118.723800	15.886828	24.977690	16.101887	37.266950	-17.587557	-50.605474	45.936953	11.196978	45.437087	54.805922	55.116132	6.772873	56.237680	65.246789	53.526765	-6.730570	78.227530	62.596967	26.747671	-13.549743	78.382686	60.274428
0.095000	-2.783033	-3.505068	94.703499	0.166025	-0.278047	0.182087	118.455044	15.512964	25.024357	16.128820	37.356103	-17.452799	-50.805216	45.806545	11.206874	45.376193	55.215628	55.091974	6.808791	56.300568	65.944620	53.419283	-6.743833	78.509298	63.120359	26.500136	-13.577878	78.552301	60.602328
0.105000	-2.783033	-3.505068	94.703499	0.165613	-0.278073	0.181821	118.249903	15.187666	25.065779	16.136094	37.452156	-17.358853	-50.871879	45.686296	11.208652	45.332784	55.451713	55.067421	6.840191	56.328341	66.583870	53.304218	-6.756513	78.732536	63.574164	26.266861	-13.601275	78.671698	60.869269
0.115000	-2.783033	-3.505068	94.703499	0.165279	-0.278105	0.181698	118.118275	14.927329	25.073825	16.140147	37.550916	-17.294212	-50.885821	45.595406	11.207369	45.313748	55.540501	55.052736	6.864640	56.347952	67.162351	53.195954	-6.768400	78.927630	63.963774	26.063220	-13.616022	78.782076	61.074209
0.125000	-2.783033	-3.505068	94.703499	0.165025	-0.278127	0.181688	118.051850	14.734698	25.044517	16.146112	37.645069	-17.243247	-50.898016	45.541951	11.205458	45.317279	55.526444	55.056574	6.881681	56.372209	67.679529	53.108763	-6.778593	79.111070	64.292275	25.899547	-13.621939	78.907540	61.218967
